<?xml version="1.0" encoding="UTF-8"?><svg xmlns="http://www.w3.org/2000/svg" id="Layer_2" data-name="Layer 2" viewBox="0 0 1190.62 830.82"><defs><style> .cls-1 { fill: #fff; } </style></defs><g id="Layer_1-2" data-name="Layer 1"><g><path class="cls-1" d="M977.23,158.76c-67.87,0-128.39,31.89-167.5,81.42-39.11-49.54-99.64-81.43-167.5-81.43-74.94,0-140.98,38.82-179.07,97.42-21.69,33.4-34.32,73.23-34.32,115.96v46.92c0,35.94-11.32,69.31-30.59,96.69-30.53,43.44-80.97,71.85-137.95,71.85-92.93,0-168.54-75.61-168.54-168.54h.01v-.57c.31-92.66,75.79-167.97,168.53-167.97,59.53,0,111.92,31.02,141.93,77.76,5.72-31.48,17.65-61.64,35.27-88.77,1.47-2.23,2.94-4.47,4.47-6.64-46.92-45.85-111.07-74.12-181.67-74.12-64.24,0-123.08,23.44-168.53,62.16V0H.01v418.49c0,.19-.01.38-.01.57,0,143.52,116.79,260.31,260.31,260.31,50.62,0,97.94-14.53,137.95-39.67,10.74-6.73,20.98-14.25,30.59-22.45,56.13-47.75,91.77-118.9,91.77-198.18v-46.92c0-67.05,54.57-121.62,121.62-121.62s121.54,54.5,121.62,121.48c0,.05,0,.09,0,.14v261.34h0s91.77,0,91.77,0v-261.35s0-.09,0-.14c.08-66.99,54.6-121.48,121.61-121.48s121.62,54.56,121.62,121.62v261.34h91.77v-261.34c0-117.66-95.72-213.38-213.38-213.38Z"/><path class="cls-1" d="M175.03,488.08c0,14.14-11.46,25.61-25.61,25.61s-25.61-11.46-25.61-25.61,11.46-25.61,25.61-25.61,25.61,11.46,25.61,25.61ZM265.2,295.27c-8.14,0-14.75,6.6-14.75,14.75s6.6,14.75,14.75,14.75,14.75-6.6,14.75-14.75-6.6-14.75-14.75-14.75ZM200.59,367.75c-8.14,0-14.75,6.6-14.75,14.75s6.6,14.75,14.75,14.75,14.75-6.6,14.75-14.75-6.6-14.75-14.75-14.75ZM380.28,411.26c-14.14,0-25.61,11.46-25.61,25.61s11.46,25.61,25.61,25.61,25.61-11.46,25.61-25.61-11.46-25.61-25.61-25.61ZM277.01,402.43c-20.67,0-37.42,16.76-37.42,37.42s16.76,37.42,37.42,37.42,37.43-16.76,37.43-37.42-16.76-37.42-37.43-37.42Z"/><g><path class="cls-1" d="M408.38,716.7c0-24.24,18.35-41.91,43.72-41.91,22.54,0,39.42,14.5,42.25,35.91h-26.96c-2.27-7.02-8.27-11.78-15.18-11.78-9.4,0-15.74,7.14-15.74,17.78s6.34,17.67,15.74,17.67c7.36,0,13.37-5.21,15.06-12.91h27.3c-2.49,22.09-19.59,37.15-42.47,37.15-25.37,0-43.72-17.67-43.72-41.91Z"/><path class="cls-1" d="M597.65,677.06v79.29h-26.73v-28.09h-18.58v28.09h-26.73v-79.29h26.73v26.84h18.58v-26.84h26.73Z"/><path class="cls-1" d="M687.58,735.05v21.29h-54.82v-79.29h54.25v21.29h-28.2v8.61h25.26v19.48h-25.26v8.61h28.77Z"/><path class="cls-1" d="M798.02,756.35l-4.65-40.03-18.45,40.03h-9.06l-18.43-39.97-4.45,39.97h-26.5l11.67-79.29h26.05l16.18,38.13,16.33-38.13h26.05l11.55,79.29h-26.28Z"/><path class="cls-1" d="M855.22,677.06h26.96v79.29h-26.96v-79.29Z"/><path class="cls-1" d="M913.56,716.7c0-24.24,18.35-41.91,43.72-41.91,22.54,0,39.42,14.5,42.25,35.91h-26.96c-2.27-7.02-8.27-11.78-15.18-11.78-9.4,0-15.74,7.14-15.74,17.78s6.34,17.67,15.74,17.67c7.36,0,13.37-5.21,15.06-12.91h27.3c-2.49,22.09-19.6,37.15-42.47,37.15-25.37,0-43.72-17.67-43.72-41.91Z"/><path class="cls-1" d="M1076.8,745.36h-25.24l-3.55,10.99h-28.43l31.6-79.29h26.5l31.83,79.29h-29.34l-3.38-10.99ZM1064.16,705.07l-7.69,21.83h15.46l-7.77-21.83Z"/><path class="cls-1" d="M1190.62,732.56v23.79h-53.35v-79.29h26.96v55.5h26.39Z"/></g><g><path class="cls-1" d="M423.15,788.18h9.03v41.73h-9.03v-41.73Z"/><path class="cls-1" d="M500.9,788.18v41.73h-7.55l-18.9-26.08v26.08h-8.86v-41.73h8.15l18.3,25.45v-25.45h8.86Z"/><path class="cls-1" d="M571.23,809c0,12.1-8.93,20.91-21.16,20.91h-15.79v-41.73h15.79c12.28,0,21.16,8.76,21.16,20.82ZM561.98,809c0-7.34-4.98-12.44-12.15-12.44h-6.53v24.97h6.53c7.17,0,12.15-5.24,12.15-12.54Z"/><path class="cls-1" d="M601.88,814.21v-26.03h9.04v25.61c0,5.21,3.4,8.51,8.21,8.51s8.19-3.3,8.19-8.51v-25.61h9.04v26.03c0,9.78-7.38,16.62-17.23,16.62s-17.25-6.83-17.25-16.62Z"/><path class="cls-1" d="M666.98,816.39h9.1c0,4.03,3.33,5.98,7.02,5.98,3.4,0,6.72-1.79,6.72-4.91s-3.8-4.12-8.33-5.18c-6.29-1.55-13.93-3.38-13.93-12.37,0-8,5.9-12.51,15.14-12.51s15.05,5.12,15.05,13.44h-8.92c0-3.59-2.96-5.28-6.34-5.28-2.93,0-5.89,1.24-5.89,3.97,0,2.94,3.63,3.83,8.04,4.88,6.36,1.61,14.35,3.59,14.35,12.94s-7.18,13.39-15.82,13.39c-9.58,0-16.18-5.38-16.18-14.35Z"/><path class="cls-1" d="M758.06,796.56h-11.6v33.35h-9.03v-33.35h-11.6v-8.38h32.24v8.38Z"/><path class="cls-1" d="M802.79,815.67h-5.79v14.24h-9.03v-41.73h16.84c8.36,0,14.59,5.76,14.59,13.8,0,5.46-2.99,9.92-7.61,12.15l9.23,15.78h-10.09l-8.15-14.24ZM796.99,807.33h7.22c3.78,0,6.03-2.27,6.03-5.4s-2.25-5.4-6.03-5.4h-7.22v10.81Z"/><path class="cls-1" d="M851.22,788.18h9.03v41.73h-9.03v-41.73Z"/><path class="cls-1" d="M919.38,821.51v8.4h-25.71v-41.73h25.05v8.34h-16.03v8.24h14.48v8.17h-14.48v8.57h16.68Z"/><path class="cls-1" d="M948.51,816.39h9.1c0,4.03,3.33,5.98,7.02,5.98,3.4,0,6.72-1.79,6.72-4.91s-3.8-4.12-8.33-5.18c-6.29-1.55-13.93-3.38-13.93-12.37,0-8,5.9-12.51,15.14-12.51s15.05,5.12,15.05,13.44h-8.92c0-3.59-2.96-5.28-6.34-5.28-2.93,0-5.89,1.24-5.89,3.97,0,2.94,3.63,3.83,8.04,4.88,6.36,1.61,14.35,3.59,14.35,12.94s-7.18,13.39-15.82,13.39c-9.58,0-16.18-5.38-16.18-14.35Z"/></g></g></g></svg>